<svg id="Layer_1" data-name="Layer 1" xmlns="http://www.w3.org/2000/svg" xmlns:xlink="http://www.w3.org/1999/xlink" viewBox="0 0 387.78 384.2"><defs><style>.cls-1{fill:#ebffdf;}.cls-2{fill:url(#linear-gradient);}</style><linearGradient id="linear-gradient" x1="240.85" y1="180.08" x2="357.47" y2="382.06" gradientUnits="userSpaceOnUse"><stop offset="0" stop-color="#70e000"/><stop offset="0.09" stop-color="#63d500"/><stop offset="0.51" stop-color="#2ea700"/><stop offset="0.83" stop-color="#0d8b00"/><stop offset="1" stop-color="green"/></linearGradient></defs><title>love</title><path class="cls-1" d="M481.93,305.05c.19,41.89.47,105.29-45.32,149.92-44.08,43-104.09,42.46-148.52,42.08-44.08-.37-103.17-.88-147.4-44.24-47.52-46.59-46.82-112.2-46.44-147.76.37-34.89,1.07-100.29,49.68-147.08,45.34-43.65,104.64-44.41,144.16-44.92,40.54-.52,102.16-1.31,147.44,42.76C481.47,200.52,481.74,263.32,481.93,305.05Z" transform="translate(-94.17 -112.93)"/><path class="cls-2" d="M289.72,215.51c28.58-27.67,71.81-29.9,99.16-8.64,32.23,25.07,37.29,78.84,4.32,113.4-10.61,13.57-26.54,33-47.52,55.08-37.88,39.85-48.53,42.42-56.16,42.12-13.47-.53-21.28-10.13-50.76-42.12-22.53-24.44-40.81-43.61-51.84-55.08-28.82-28.16-30.06-74-4.32-102.6C209.84,187.42,259.23,185.57,289.72,215.51Z" transform="translate(-94.17 -112.93)"/></svg>